<svg xmlns="http://www.w3.org/2000/svg" width="357" height="35" viewBox="0 0 357 35">
  <path fill="#FFF" fill-rule="evenodd" d="M0 17.25C0 7.5 6.4 0 16.2 0c9.75 0 16.2 7.5 16.2 17.25S25.95 34.5 16.2 34.5C6.4 34.5 0 27 0 17.25zm29.4 0c0-8.5-5.2-14.65-13.2-14.65C8.1 2.6 3 8.75 3 17.25c0 8.4 5.1 14.65 13.2 14.65 8 0 13.2-6.25 13.2-14.65zm11.5 16.8c.8 0 1.4-.7 1.4-1.45V18.1h16.8c.7 0 1.3-.6 1.3-1.3 0-.7-.6-1.3-1.3-1.3H42.3V3.15h17.15c.7 0 1.3-.6 1.3-1.3 0-.7-.6-1.3-1.3-1.3H41c-1 0-1.55.55-1.55 1.55v30.5c0 .75.65 1.45 1.45 1.45zm27.1 0c.8 0 1.4-.7 1.4-1.45V18.1h16.8c.7 0 1.3-.6 1.3-1.3 0-.7-.6-1.3-1.3-1.3H69.4V3.15h17.15c.7 0 1.3-.6 1.3-1.3 0-.7-.6-1.3-1.3-1.3H68.1c-1 0-1.55.55-1.55 1.55v30.5c0 .75.65 1.45 1.45 1.45zm27.1 0c.8 0 1.4-.7 1.4-1.45V1.85c0-.8-.6-1.45-1.4-1.45-.8 0-1.45.65-1.45 1.45V32.6c0 .75.65 1.45 1.45 1.45zm25.25.45c4.7 0 8.35-1.7 11.3-4.8.25-.2.4-.55.4-.95 0-.75-.65-1.4-1.45-1.4-.4 0-.75.15-1 .45-2.25 2.55-5.6 4.1-9.25 4.1-7.75 0-13.8-6.05-13.8-14.65 0-8.7 6.05-14.65 13.8-14.65 3.65 0 6.95 1.55 9.2 4.05.25.3.65.45 1.05.45.8 0 1.4-.6 1.4-1.4 0-.35-.1-.7-.35-.95-2.85-3-6.6-4.75-11.3-4.75-9.35 0-16.8 7-16.8 17.25S111 34.5 120.35 34.5zm19.45-.6h18.45c.7 0 1.3-.6 1.3-1.3 0-.7-.6-1.3-1.3-1.3H141.1V18.1h16.8c.7 0 1.3-.6 1.3-1.3 0-.7-.6-1.3-1.3-1.3h-16.8V3.15h17.15c.7 0 1.3-.6 1.3-1.3 0-.7-.6-1.3-1.3-1.3H139.8c-1 0-1.55.55-1.55 1.55v30.25c0 .95.55 1.55 1.55 1.55zm52.2.35c2 0 3.6-1.65 3.6-3.55V3.75c0-1.95-1.6-3.55-3.55-3.55-2 0-3.6 1.6-3.6 3.55v9.9H172.7v-9.9c0-1.95-1.55-3.55-3.55-3.55-1.95 0-3.55 1.6-3.55 3.55V30.7c0 1.9 1.6 3.55 3.6 3.55 1.95 0 3.5-1.65 3.5-3.55V19.9h15.75v10.8c0 1.9 1.6 3.55 3.55 3.55zm13.9-.35H223c1.7 0 3.1-1.4 3.1-3.1 0-1.65-1.4-3.05-3.1-3.05h-13.75V20h13.4c1.7 0 3.1-1.35 3.1-3.05 0-1.65-1.4-3.05-3.1-3.05h-13.4V6.65H223c1.7 0 3.1-1.35 3.1-3 0-1.75-1.4-3.1-3.1-3.1h-17.1c-2.4 0-3.75 1.35-3.75 3.75v25.8c0 2.45 1.35 3.8 3.75 3.8zm45.85-12.95l5.65 7.7c.45.6.7 1.25.7 2.25 0 1.7-1.5 3.35-3.4 3.35-1.25 0-2.35-.65-2.95-1.5l-7.5-10.8h-5.85v8.75c0 1.9-1.55 3.55-3.5 3.55-2 0-3.6-1.65-3.6-3.55V4.3c0-2.4 1.35-3.75 3.75-3.75h11.85c6.95 0 11.2 4.55 11.2 10.75 0 5.35-3.05 8.45-6.35 9.65zM238.4 6.65v9.2h7.45c2.85 0 5-1.8 5-4.6s-2.15-4.6-5-4.6h-7.45zm23.45 10.6C261.85 7.2 269.2 0 279.25 0c10.1 0 17.45 7.2 17.45 17.25s-7.35 17.25-17.45 17.25c-10.05 0-17.4-7.2-17.4-17.25zm27.55 0c0-6.25-4-10.95-10.15-10.95s-10.1 4.7-10.1 10.95c0 6.2 3.95 10.95 10.1 10.95 6.15 0 10.15-4.75 10.15-10.95zm16.05 16.65h17.1c1.7 0 3.1-1.4 3.1-3.1 0-1.65-1.4-3.05-3.1-3.05H308.8V20h13.4c1.7 0 3.1-1.35 3.1-3.05 0-1.65-1.4-3.05-3.1-3.05h-13.4V6.65h13.75c1.7 0 3.1-1.35 3.1-3 0-1.75-1.4-3.1-3.1-3.1h-17.1c-2.4 0-3.75 1.35-3.75 3.75v25.8c0 2.45 1.35 3.8 3.75 3.8zm25.5-2.75c3 2.1 6.85 3.35 11.75 3.35 9 0 13.35-4.6 13.35-10.7 0-7.4-7-9.05-12.5-10.3-3.85-.9-6.65-1.6-6.65-3.85 0-2 1.7-3.4 5.4-3.4 2.35 0 4.95.7 7.55 2.15.45.3 1.05.5 1.7.5 1.75 0 3.25-1.5 3.25-3.3 0-1.2-.7-2.3-1.65-2.8C349.95.95 346.6.05 342.8.05c-8.35 0-13.15 4.5-13.15 10.05 0 7.45 7 8.95 12.45 10.2 3.85.9 6.75 1.75 6.75 4.25 0 1.9-1.9 3.75-5.8 3.75-3.35 0-6.1-1.05-8.4-2.65-.55-.4-1.2-.6-1.9-.6-1.8 0-3.3 1.5-3.3 3.35 0 1.15.6 2.15 1.5 2.75z"/>
</svg>
